# Blender v2.73 (sub 0) OBJ File: 'cube.blend'
# www.blender.org
o Cube
v 1.000000 -1.000000 -1.000000
v 1.000000 -1.000000 1.000000
v -1.000000 -1.000000 1.000000
v -1.000000 -1.000000 -1.000000
v 1.000000 1.000000 -0.999999
v 0.999999 1.000000 1.000001
v -1.000000 1.000000 1.000000
v -1.000000 1.000000 -1.000000
vt 0.000100 0.999900
vt 0.000100 0.500100
vt 0.499900 0.500100
vt 0.000100 0.499900
vt 0.000100 0.000100
vt 0.499900 0.000100
vt 0.499900 0.999900
vt 0.499900 0.499900
vn 0.000000 -1.000000 0.000000
vn 0.000000 1.000000 0.000000
s off
f 2/1/1 3/2/1 4/3/1
f 8/4/2 7/5/2 6/6/2
f 1/7/1 2/1/1 4/3/1
f 5/8/2 8/4/2 6/6/2
