# Blender v2.73 (sub 0) OBJ File: 'cube.blend'
# www.blender.org
v 1.000000 -1.000000 -1.000000
v 1.000000 -1.000000 1.000000
v -1.000000 -1.000000 1.000000
v -1.000000 -1.000000 -1.000000
v 1.000000 1.000000 -0.999999
v 0.999999 1.000000 1.000001
v -1.000000 1.000000 1.000000
v -1.000000 1.000000 -1.000000
vt -0.000000 1.000000
vt -1.000000 1.000000
vt -1.000000 0.000000
vt 0.000000 -1.000000
vt -1.000000 -1.000000
vt 0.000000 0.000000
vn -0.000000 0.000000 1.000000
vn 0.000000 0.000000 -1.000000
s off
f 6/1/1 7/2/1 3/3/1
f 1/4/2 4/5/2 8/3/2
f 2/6/1 6/1/1 3/3/1
f 5/6/2 1/4/2 8/3/2
